<svg class="icon" style="width: 1em;height: 1em;vertical-align: middle;fill: currentColor;overflow: hidden;" viewBox="0 0 1024 1024" version="1.1" xmlns="http://www.w3.org/2000/svg" p-id="4703"><path d="M512 11.1616a40.96 40.96 0 0 1 40.96 40.96v49.6128c0 3.3792-0.4096 6.656-1.1776 9.728 182.8352 17.92 331.4688 157.0304 331.4688 333.9776v184.32a40.96 40.96 0 0 1-81.92 0V445.44c0-135.936-125.1328-253.952-289.4848-253.952-38.8096 0-75.6736 6.656-109.312 18.7904a40.96 40.96 0 0 1-27.648-77.1072c30.6688-11.0592 63.3344-18.432 97.28-21.7088a41.0624 41.0624 0 0 1-1.1264-9.728v-49.664a40.96 40.96 0 0 1 40.96-40.96zM813.568 871.424h-140.288a162.1504 162.1504 0 0 1-322.56 0H74.752a40.96 40.96 0 0 1 0-81.92h65.6896V445.44a312.32 312.32 0 0 1 61.6448-185.3952L73.472 131.3792a40.96 40.96 0 1 1 57.856-57.9584l819.2 819.2a40.96 40.96 0 1 1-57.856 57.9584l-79.1552-79.1552zM260.9152 318.8736A229.0176 229.0176 0 0 0 222.4128 445.44v344.064h509.184L260.9664 318.8736zM512 934.912c38.6048 0 70.8096-27.2384 78.4896-63.488H433.5104c7.68 36.2496 39.936 63.488 78.4896 63.488z" p-id="4704"></path></svg>